<svg xmlns="http://www.w3.org/2000/svg" viewBox="-3.117747099999999 -59.124562 40.105622800000006 40.069969099999994" > 
<path  id="-39800" style="fill:#a0a0ff; stroke:#0000ff; stroke-width:1; stroke-linejoin:round; " fill-rule="evenodd"   d="M 16.8822529 -39.0920726 L 16.8883754 -39.0842619 16.8932577 -39.0783039 16.9101883 -39.058888 16.9104475 -39.058641 16.9107326 -39.0585091 16.9123571 -39.0582857 16.9128881 -39.0582765 16.9133378 -39.0583132 16.9134604 -39.0583284 16.9138057 -39.0583712 16.9142675 -39.0584521 16.9174648 -39.0591375 16.92014 -39.0597956 16.9228049 -39.0604902 16.9232015 -39.0605935 16.9236999 -39.0606404 16.924185 -39.0606072 16.9258148 -39.060226 16.926341 -39.0600461 16.930153 -39.0585749 16.9303307 -39.0585002 16.9304578 -39.0584468 16.9335584 -39.0568901 16.9353975 -39.0556805 16.9357844 -39.0554291 16.9361586 -39.0552056 16.9365819 -39.0550463 16.9372913 -39.0547908 16.9378316 -39.0546729 16.938408 -39.0545929 16.9389416 -39.0547092 16.9491909 -39.0618218 16.9530632 -39.0633862 16.9571456 -39.0657229 16.9573686 -39.0658056 16.9578003 -39.0659658 16.9640469 -39.0665888 16.9654591 -39.0667075 16.9658419 -39.0666497 16.9669549 -39.0663798 16.9678963 -39.0661352 16.968249 -39.0660031 16.970179 -39.0664414 16.9726743 -39.0692734 16.9762485 -39.0747786 16.976301 -39.0750433 16.9770333 -39.0800935 16.9744111 -39.0846942 16.9728836 -39.0867239 16.9724132 -39.0875142 16.9728789 -39.0877585 16.9758232 -39.0889317 16.9778903 -39.0896438 16.9789636 -39.089988 16.9797569 -39.0902167 16.9808147 -39.0904496 16.9878757 -39.0919728 16.9853771 -39.0961021 16.9851519 -39.0963425 16.9835051 -39.097733 16.9829854 -39.0977688 16.9810952 -39.0975753 16.9790198 -39.096194 16.9787506 -39.0959832 16.977115 -39.0950571 16.9745557 -39.0957055 16.9713981 -39.0970065 16.9710966 -39.0973375 16.9661957 -39.1031696 16.9659172 -39.103526 16.9617486 -39.1100719 16.9617242 -39.1104424 16.9618627 -39.1108375 16.9618974 -39.1111949 16.9618018 -39.1115612 16.961561 -39.1119959 16.9613497 -39.1123342 16.960198 -39.1137219 16.9599847 -39.1139659 16.9555433 -39.1188478 16.9538616 -39.1206962 16.9523394 -39.1223693 16.9519534 -39.1226701 16.950499 -39.1234894 16.9485928 -39.1245376 16.9435182 -39.124562 16.9430988 -39.1240691 16.939369 -39.1209613 16.9276725 -39.1144912 16.9244679 -39.1128309 16.9232349 -39.1124955 16.920603 -39.1117795 16.915697 -39.1104448 16.9138156 -39.1122281 16.911323 -39.1145703 16.911024 -39.1147347 16.9008312 -39.1176068 16.8987343 -39.1178579 16.9030743 -39.1121193 16.9024487 -39.1114617 16.8952704 -39.1039632 16.8905621 -39.0998518 16.8891189 -39.0986775 16.8841623 -39.0944867 16.8839134 -39.0942743 16.8837125 -39.0940901 Z" ><title>San Mauro Marchesato</title></path>
</svg>